<svg xmlns="http://www.w3.org/2000/svg" viewBox="-50 -50 100 100">
  <defs>
    <style>
      @import url("https://fonts.googleapis.com/css2?family=Space+Mono:wght@400;700");
    </style>
  </defs>

  <!-- hex border -->
  <path
    fill="#236192"
    d="
      M 0 50
      L 43.3 25
      L 43.3 -25
      L 0 -50
      L -43.3 -25
      L -43.3 25
      z
    "
  />

  <!-- hex bg -->
  <path
    fill="#f0f9ff"
    transform="scale(0.92)"
    d="
      M 0 50
      L 43.3 25
      L 43.3 -25
      L 0 -50
      L -43.3 -25
      L -43.3 25
      z
    "
  />

  <!-- data bg -->
  <defs>
    <pattern id="data" viewBox="-10 -10 20 20" width="33%" height="33%">
      <g
        fill="#bae6fd"
        font-family="Space Mono"
        font-size="10"
        text-anchor="middle"
        dominant-baseline="central"
      >
        <text x="-5" y="-5">l</text>
        <text x="5" y="-5">O</text>
        <text x="-5" y="5">O</text>
        <text x="5" y="5">l</text>
      </g>
    </pattern>
  </defs>

  <!-- magnifying glass -->
  <g fill="#7dd3fc" stroke="#7dd3fc" stroke-width="4">
    <!-- glass -->
    <circle fill="url(#data)" r="17.5" />
    <!-- handle -->
    <path
      transform="rotate(60)"
      d="
        M 0 17.5
        v 15
      "
    />
  </g>

  <!-- rod of asclepius -->
  <g
    transform="scale(0.1) translate(-300, -330)"
    stroke="#f0f9ff"
    stroke-width="12"
    paint-order="stroke fill"
  >
    <!-- rod -->
    <g fill="#236192">
      <circle cx="300" cy="105" r="25" />
      <!-- <path
          d="M 296.38 31.38 C 313.13 27.86 330.01 43.60 327.56 60.58 C 326.55 79.68 302.20 91.35 286.58 80.39 C 266.09 68.80 273.10 34.32 296.38 31.38 Z"
        />
        <path
          d="M 269.61 81.18 C 288.36 94.67 314.24 94.32 332.87 80.82 C 322.45 106.99 279.90 107.69 269.61 81.18 Z"
        /> -->
      <!-- <path
          d="M 286.42 120.13 C 296.16 121.68 305.86 121.67 315.60 120.16 C 315.66 114.97 315.92 123.91 314.73 132.65 C 305.63 133.42 296.51 134.52 287.43 135.35 Z"
        /> -->
      <path
        d="M 305.42 176.50 C 308.39 176.41 311.38 176.41 314.36 176.46 C 313.11 226.76 311.89 277.00 310.43 327.28 C 304.14 330.27 298.45 334.20 291.56 335.82 C 290.25 284.20 288.84 232.52 287.62 180.94 C 292.18 177.48 299.57 177.39 305.42 176.50 Z"
      />
      <path
        d="M 307.28 364.68 C 307.81 364.65 308.89 364.57 309.43 364.54 C 308.18 401.81 308.10 439.23 306.52 476.53 C 302.59 477.28 299.59 480.85 295.53 480.66 C 293.83 444.17 293.21 407.57 292.78 371.06 C 297.68 369.08 302.18 365.60 307.28 364.68 Z"
      />
      <path
        d="M 304.20 503.61 C 306.10 502.43 306.28 505.68 306.14 507.00 C 305.17 523.74 306.68 540.62 304.40 557.27 C 301.57 558.78 298.03 558.23 296.70 554.93 C 296.45 538.97 295.73 523.02 295.81 507.06 C 298.44 505.60 301.26 504.43 304.20 503.61 Z"
      />
    </g>

    <!-- snake -->
    <g fill="#236192">
      <path
        d="M 343.44 138.66 C 364.40 137.07 383.45 158.15 386.55 177.40 C 373.61 186.60 355.63 182.34 340.92 180.07 C 333.45 179.09 326.89 175.27 322.05 169.68 C 304.33 169.17 285.18 171.14 270.71 181.68 C 252.40 196.37 261.70 225.68 281.17 234.92 C 284.22 244.39 282.70 256.30 283.39 266.71 C 253.41 257.71 226.41 228.87 231.51 195.40 C 233.81 165.53 261.22 146.31 288.83 142.09 C 306.79 137.80 325.29 140.68 343.44 138.66 M 358.37 153.44 C 354.72 153.97 354.99 160.47 358.99 160.33 C 364.03 160.87 363.53 151.66 358.37 153.44 Z"
      />
      <!-- <path
        d="M 388.35 183.33 C 392.32 187.13 404.17 186.52 404.76 193.88 C 398.81 191.76 387.50 191.52 388.35 183.33 Z"
      /> -->
      <path
        d="M 319.29 256.24 C 344.68 263.69 367.89 292.80 355.62 320.67 C 342.60 350.35 308.24 355.83 282.97 371.01 C 276.09 375.49 268.83 382.42 270.52 391.37 C 273.21 398.31 281.38 401.39 286.94 405.91 C 287.64 412.39 287.33 419.00 287.57 425.54 C 272.73 421.16 256.27 411.72 250.89 395.97 C 247.77 384.62 251.43 371.71 259.36 363.37 C 277.73 341.67 310.62 339.46 329.59 318.60 C 339.92 307.00 331.90 289.26 318.39 284.42 C 318.25 275.07 317.97 265.35 319.29 256.24 Z"
      />
      <path
        d="M 315.24 420.43 C 335.03 427.75 352.83 449.83 343.43 471.39 C 328.49 501.26 284.02 494.13 268.80 522.93 C 268.24 526.55 264.90 523.27 265.80 520.95 C 266.21 501.06 286.72 491.61 301.75 483.61 C 314.20 478.03 333.72 471.82 330.45 454.66 C 327.78 447.70 320.98 441.80 314.28 438.61 C 314.57 432.84 313.40 424.67 315.24 420.43 Z"
      />
    </g>
  </g>

  <!-- title -->
  <path
    id="title-path"
    opacity="0"
    d="
      M -32 0
      a 32 32 0 0 1 64 0
      a 32 32 0 0 1 -64 0
    "
  />
  <text
    fill="#236192"
    font-family="Space Mono"
    font-size="10"
    font-weight="bold"
    letter-spacing="0.2"
    dominant-baseline="middle"
    transform="rotate(0)"
  >
    <textPath href="#title-path">medicalcoder</textPath>
  </text>

  <!-- subtitle -->
  <path
    id="subtitle-path"
    opacity="0"
    d="
      M -32 0
      a 32 32 0 0 0 64 0
      a 32 32 0 0 0 -64 0
    "
  />
  <text
    fill="#236192"
    font-family="Space Mono"
    font-size="4"
    dominant-baseline="middle"
    transform="rotate(-60)"
  >
    <textPath href="#subtitle-path">ICD-9 ICD-10 Comorbidities</textPath>
  </text>
</svg>
